<svg id="svg" xmlns="http://www.w3.org/2000/svg" xmlns:xlink="http://www.w3.org/1999/xlink" width="20.0000000" height="20.0000000" viewBox="0, 0, 400,397.5855130784708" version="1.1"><g id="svgg"><path id="path0" d="M146.720 1.000 C 132.530 4.898,112.568 12.681,105.054 17.245 C 103.748 18.039,102.520 18.688,102.325 18.688 C 98.582 18.688,95.813 28.438,97.752 34.791 C 98.019 35.666,98.762 38.082,99.403 40.159 C 100.043 42.237,100.953 45.457,101.424 47.316 C 101.895 49.175,102.600 51.859,102.991 53.280 C 103.382 54.702,103.991 57.117,104.344 58.648 C 106.235 66.855,111.401 69.579,117.929 65.812 C 126.205 61.036,138.622 54.657,141.153 53.881 C 141.700 53.714,143.936 52.866,146.123 51.999 C 155.526 48.267,172.845 44.076,181.909 43.339 C 184.095 43.161,188.479 42.709,191.650 42.335 C 197.494 41.645,200.736 41.672,211.928 42.504 C 220.301 43.126,225.207 43.759,229.622 44.784 C 232.028 45.343,235.875 46.231,238.171 46.758 C 248.398 49.105,269.752 57.597,275.547 61.622 C 276.093 62.002,277.614 62.904,278.926 63.626 C 282.661 65.681,292.860 72.605,296.958 75.867 L 300.676 78.826 300.401 81.024 C 300.250 82.234,299.973 83.598,299.786 84.057 C 299.334 85.162,297.144 92.573,296.895 93.837 C 296.788 94.384,296.439 95.815,296.121 97.018 C 295.802 98.221,295.319 100.547,295.047 102.187 C 294.774 103.827,294.224 105.885,293.824 106.759 C 293.424 107.634,292.906 108.976,292.674 109.742 C 292.443 110.507,291.970 112.028,291.623 113.121 C 291.277 114.215,290.840 115.825,290.652 116.700 C 290.464 117.575,289.928 119.632,289.460 121.272 C 288.992 122.913,288.345 125.328,288.023 126.640 C 287.214 129.934,286.071 133.938,284.733 138.171 C 284.110 140.139,283.386 142.644,283.124 143.738 C 282.861 144.831,282.381 146.644,282.056 147.766 C 281.732 148.888,281.322 151.244,281.145 153.001 C 280.938 155.046,280.531 156.671,280.012 157.521 C 279.255 158.758,278.665 160.593,275.556 171.372 C 274.894 173.668,274.174 175.857,273.955 176.237 C 273.737 176.617,273.559 177.149,273.559 177.419 C 273.559 177.689,273.188 179.168,272.735 180.704 C 271.922 183.465,271.682 184.378,270.745 188.270 C 270.481 189.364,269.571 192.674,268.722 195.626 C 267.873 198.579,266.796 202.336,266.329 203.976 C 265.862 205.616,265.181 207.930,264.816 209.117 L 264.153 211.276 262.545 207.925 C 261.661 206.081,260.713 203.857,260.439 202.982 C 259.563 200.179,256.038 191.146,254.686 188.239 C 253.966 186.690,253.247 184.990,253.089 184.461 C 252.930 183.932,251.667 180.636,250.282 177.137 C 248.897 173.638,247.637 170.239,247.483 169.583 C 247.329 168.926,246.782 167.624,246.267 166.689 C 245.752 165.753,244.944 163.789,244.471 162.325 C 243.998 160.860,243.119 158.673,242.518 157.465 C 241.917 156.257,241.140 154.374,240.791 153.280 C 239.410 148.951,237.623 147.515,233.618 147.515 C 228.512 147.515,228.875 146.942,217.527 172.962 C 216.621 175.040,215.278 178.082,214.543 179.722 C 213.808 181.362,212.664 183.956,212.001 185.487 C 211.338 187.018,209.895 190.345,208.793 192.881 C 205.677 200.056,205.385 202.648,207.231 206.759 C 207.673 207.744,208.654 210.070,209.410 211.928 C 210.167 213.787,211.490 216.732,212.351 218.471 C 213.212 220.211,213.917 221.916,213.917 222.260 C 213.917 222.603,214.156 223.238,214.448 223.669 C 214.741 224.100,215.656 226.064,216.483 228.032 C 217.309 230.000,218.770 233.253,219.728 235.262 C 220.687 237.270,221.471 239.018,221.471 239.147 C 221.471 239.275,222.187 240.894,223.062 242.744 C 223.936 244.593,224.652 246.284,224.652 246.501 C 224.652 246.950,225.936 249.871,228.418 255.070 C 229.358 257.038,230.846 260.437,231.724 262.624 C 232.602 264.811,234.248 268.658,235.382 271.173 C 236.516 273.688,238.203 277.535,239.131 279.722 C 244.514 292.409,243.429 291.956,268.923 292.153 C 297.039 292.370,296.970 292.395,299.804 280.915 C 300.074 279.821,300.615 277.942,301.006 276.740 C 301.398 275.537,302.109 273.211,302.586 271.571 C 303.064 269.930,303.779 267.604,304.177 266.402 C 304.574 265.199,305.281 262.873,305.747 261.233 C 306.214 259.592,306.952 256.998,307.388 255.467 C 308.191 252.644,308.794 250.470,309.374 248.310 C 309.550 247.654,309.905 246.044,310.163 244.732 C 310.421 243.419,310.864 241.809,311.148 241.153 C 312.158 238.816,313.758 233.947,314.544 230.815 C 314.984 229.066,315.868 226.024,316.511 224.056 C 317.153 222.087,318.556 217.435,319.628 213.718 C 324.369 197.284,326.591 189.810,328.315 184.493 C 329.059 182.197,329.820 179.602,330.007 178.728 C 330.193 177.853,330.735 175.885,331.211 174.354 C 331.687 172.823,332.356 170.497,332.697 169.185 C 333.038 167.873,333.984 164.742,334.800 162.227 C 335.615 159.712,336.502 156.849,336.771 155.865 C 337.040 154.881,337.420 153.665,337.616 153.162 C 337.812 152.660,337.972 151.897,337.972 151.467 C 337.972 151.037,338.134 150.374,338.331 149.995 C 338.528 149.615,338.900 148.499,339.156 147.515 C 339.412 146.531,339.974 144.563,340.405 143.141 C 340.836 141.720,341.344 140.020,341.535 139.364 C 342.008 137.735,344.189 130.397,345.140 127.237 C 346.809 121.691,348.268 116.620,348.687 114.911 C 348.928 113.926,349.740 111.153,350.492 108.748 C 351.244 106.342,352.328 102.763,352.902 100.795 C 353.475 98.827,354.353 95.875,354.853 94.235 C 355.802 91.117,356.660 87.021,356.660 85.604 C 356.660 85.148,357.291 83.445,358.062 81.821 C 360.652 76.369,360.676 72.441,358.149 68.003 C 355.774 63.833,339.585 47.427,331.654 41.153 C 330.272 40.060,328.363 38.510,327.412 37.710 C 324.282 35.078,316.737 29.573,314.728 28.455 C 313.643 27.852,311.096 26.201,309.068 24.787 C 303.521 20.920,288.095 12.780,283.101 11.085 C 281.680 10.603,278.996 9.503,277.137 8.641 C 273.546 6.976,265.763 4.303,256.719 1.629 L 251.211 0.000 200.655 0.036 L 150.099 0.072 146.720 1.000 M79.015 35.952 C 77.971 36.233,76.181 37.097,75.039 37.872 C 73.897 38.648,72.157 39.682,71.173 40.171 C 68.784 41.358,66.909 42.822,62.568 46.891 C 60.570 48.765,57.885 51.282,56.603 52.485 C 55.321 53.688,53.199 56.004,51.888 57.632 C 50.576 59.260,48.970 61.049,48.318 61.608 C 45.516 64.010,40.820 69.460,36.135 75.746 C 25.753 89.675,12.868 112.849,9.384 123.857 C 9.107 124.732,8.149 127.326,7.255 129.622 C 5.673 133.685,3.312 141.458,1.579 148.310 C 1.109 150.169,0.562 152.101,0.362 152.603 C -0.233 154.105,-0.095 154.756,0.762 154.484 C 1.181 154.351,1.646 154.440,1.796 154.682 C 1.948 154.929,1.832 155.090,1.531 155.049 C 0.559 154.916,0.000 155.064,0.000 155.455 C 0.000 155.667,0.242 155.747,0.537 155.634 C 0.925 155.485,1.063 155.791,1.034 156.740 C 1.009 157.551,0.807 158.015,0.504 157.955 C -0.110 157.833,-0.240 241.735,0.371 244.078 C 0.579 244.875,1.143 247.227,1.625 249.304 C 2.107 251.382,3.167 255.318,3.980 258.052 C 4.794 260.785,5.681 263.827,5.951 264.811 C 6.222 265.795,6.810 267.406,7.257 268.390 C 7.705 269.374,8.564 271.521,9.168 273.161 C 15.892 291.436,29.173 314.216,41.158 328.032 C 42.581 329.672,44.655 332.132,45.766 333.499 C 46.877 334.866,47.934 335.984,48.114 335.984 C 48.295 335.984,49.809 337.683,51.479 339.759 C 53.149 341.836,55.354 344.207,56.379 345.028 C 57.404 345.849,60.123 348.324,62.422 350.528 C 64.720 352.731,67.069 354.878,67.642 355.299 C 68.215 355.720,70.897 357.853,73.601 360.040 C 79.209 364.574,86.537 369.873,88.832 371.052 C 89.688 371.492,91.388 372.529,92.609 373.357 C 96.363 375.900,106.685 381.562,111.620 383.785 C 123.747 389.248,131.772 392.272,141.969 395.225 L 150.219 397.614 200.311 397.614 L 250.403 397.614 255.718 396.192 C 264.549 393.830,272.313 391.090,281.909 386.948 C 284.423 385.863,287.823 384.394,289.463 383.685 C 291.103 382.976,293.787 381.638,295.427 380.713 C 297.068 379.787,300.288 377.986,302.584 376.710 C 307.939 373.735,321.384 364.795,325.249 361.639 C 326.889 360.300,329.573 358.208,331.213 356.990 C 332.853 355.772,335.461 353.545,337.009 352.040 C 338.557 350.535,340.973 348.322,342.377 347.121 C 345.514 344.438,348.352 341.577,349.801 339.636 C 350.403 338.830,351.134 337.919,351.427 337.610 C 351.719 337.302,352.417 336.318,352.978 335.424 C 353.538 334.529,355.446 332.366,357.217 330.616 C 364.661 323.264,373.494 310.417,382.368 294.036 C 383.671 291.630,384.980 289.036,385.277 288.270 C 385.574 287.505,386.573 285.268,387.496 283.300 C 389.879 278.222,391.623 274.155,392.242 272.233 C 392.536 271.322,393.291 269.235,393.922 267.594 C 394.552 265.954,395.479 263.091,395.982 261.233 C 396.485 259.374,397.056 257.495,397.251 257.058 C 397.594 256.286,398.287 253.810,399.421 249.304 C 400.238 246.060,400.238 151.554,399.421 148.310 C 398.452 144.459,397.604 141.458,397.385 141.104 C 397.269 140.915,396.940 139.910,396.655 138.870 C 394.778 132.019,394.265 130.368,393.058 127.293 C 390.016 119.537,387.279 113.554,382.212 103.579 C 381.545 102.266,380.729 100.567,380.397 99.801 C 380.066 99.036,379.355 97.918,378.819 97.318 C 378.282 96.718,377.539 95.431,377.168 94.459 C 375.023 88.842,365.695 90.102,364.074 96.227 C 363.756 97.428,363.237 99.215,362.919 100.199 C 362.105 102.720,361.444 105.059,360.224 109.742 C 359.967 110.726,359.261 113.141,358.654 115.109 C 358.047 117.078,357.166 120.030,356.697 121.670 C 356.227 123.310,355.505 125.726,355.092 127.038 C 354.678 128.350,354.225 129.871,354.085 130.417 C 353.577 132.396,352.307 137.042,351.478 139.960 C 349.284 147.676,349.223 148.483,350.488 152.883 C 352.297 159.169,353.609 163.267,353.920 163.598 C 354.115 163.806,354.281 165.148,354.289 166.581 C 354.296 168.013,354.581 170.258,354.922 171.571 C 355.516 173.861,355.743 175.118,356.749 181.710 C 357.398 185.967,357.373 211.290,356.716 214.911 C 356.438 216.441,356.062 219.036,355.880 220.676 C 355.699 222.316,355.348 224.374,355.100 225.249 C 354.852 226.123,354.488 228.091,354.291 229.622 C 353.776 233.630,352.696 238.476,351.836 240.630 C 351.428 241.655,351.093 242.776,351.093 243.121 C 351.093 243.466,350.920 244.059,350.708 244.439 C 350.497 244.819,350.064 245.934,349.746 246.918 C 344.129 264.335,334.639 281.502,322.093 296.942 C 320.439 298.978,318.585 301.305,317.973 302.111 C 311.811 310.235,292.363 326.236,279.390 333.855 C 261.249 344.510,236.431 352.911,219.085 354.269 C 216.571 354.465,212.724 354.856,210.537 355.136 C 205.363 355.799,197.184 355.800,190.457 355.138 C 187.505 354.848,183.121 354.460,180.716 354.276 C 178.310 354.092,175.805 353.759,175.149 353.535 C 174.493 353.312,171.362 352.656,168.191 352.078 C 155.077 349.687,136.835 342.776,124.171 335.400 C 119.593 332.733,113.630 328.998,111.910 327.721 C 110.944 327.003,109.211 325.954,108.059 325.389 C 106.907 324.825,104.884 323.265,103.563 321.923 C 102.243 320.581,99.291 317.873,97.003 315.905 C 92.042 311.637,86.262 305.864,82.704 301.622 C 81.282 299.927,79.397 297.706,78.515 296.686 C 72.595 289.842,65.828 279.491,60.672 269.389 C 58.329 264.800,55.997 260.500,55.489 259.834 C 54.981 259.169,54.358 257.621,54.103 256.396 C 53.849 255.171,53.184 252.940,52.625 251.438 C 52.066 249.937,51.440 247.992,51.234 247.117 C 50.791 245.230,49.447 240.923,48.691 238.966 C 48.396 238.201,48.037 236.948,47.895 236.183 C 47.752 235.417,47.385 234.395,47.078 233.911 C 46.772 233.426,46.515 231.995,46.507 230.730 C 46.499 229.465,46.207 227.356,45.857 226.044 C 45.508 224.732,45.076 221.869,44.896 219.682 C 44.717 217.495,44.348 214.543,44.076 213.121 C 43.386 209.513,43.397 189.372,44.092 184.891 C 44.379 183.032,44.750 179.811,44.915 177.734 C 45.081 175.656,45.503 172.883,45.854 171.571 C 46.205 170.258,46.499 168.436,46.507 167.521 C 46.515 166.606,46.722 165.353,46.968 164.738 C 47.215 164.122,47.650 162.634,47.935 161.431 C 48.461 159.215,50.687 152.308,52.164 148.310 C 52.608 147.107,53.464 144.781,54.066 143.141 C 55.616 138.921,57.307 135.189,57.669 135.189 C 58.044 135.189,59.061 138.001,60.042 141.750 C 60.442 143.280,61.154 145.875,61.623 147.515 C 62.093 149.155,62.631 151.213,62.819 152.087 C 63.007 152.962,63.444 154.573,63.790 155.666 C 64.137 156.759,64.609 158.280,64.841 159.046 C 65.072 159.811,65.405 160.795,65.580 161.233 C 65.755 161.670,66.076 162.744,66.293 163.618 C 66.661 165.099,67.137 166.798,69.186 173.956 C 69.624 175.487,70.448 178.439,71.018 180.517 C 72.560 186.142,72.989 187.580,74.098 190.855 C 75.097 193.805,77.508 201.920,78.527 205.765 C 80.206 212.098,82.643 220.684,84.170 225.646 C 84.709 227.396,85.569 230.449,86.082 232.430 C 86.594 234.412,87.565 237.118,88.239 238.444 C 88.912 239.769,89.470 241.368,89.477 241.997 C 89.485 242.627,89.767 244.215,90.104 245.527 C 91.036 249.161,91.478 250.985,91.720 252.192 C 91.842 252.796,92.099 253.388,92.292 253.507 C 92.486 253.627,92.647 254.117,92.650 254.596 C 92.653 255.075,92.941 256.272,93.291 257.256 C 93.640 258.241,94.167 260.209,94.463 261.630 C 95.022 264.320,95.413 265.775,96.651 269.781 C 97.057 271.093,98.109 274.583,98.989 277.535 C 103.602 293.017,101.984 292.241,129.622 292.241 C 156.586 292.241,155.310 292.833,161.706 277.336 C 162.608 275.149,164.168 271.526,165.172 269.284 C 169.825 258.899,170.695 256.928,171.447 255.070 C 171.890 253.976,172.436 252.634,172.660 252.087 C 172.885 251.541,173.206 250.736,173.373 250.298 C 173.541 249.861,174.054 248.655,174.513 247.619 C 174.972 246.582,175.348 245.612,175.348 245.462 C 175.348 245.312,176.044 243.744,176.895 241.978 C 179.877 235.791,183.250 228.401,184.530 225.249 C 185.241 223.499,186.039 221.710,186.303 221.272 C 186.568 220.835,186.907 219.951,187.057 219.309 C 187.207 218.666,187.666 217.667,188.077 217.089 C 188.913 215.915,190.237 212.743,191.137 209.755 C 191.464 208.670,193.324 204.490,195.269 200.468 C 197.215 196.447,198.807 193.030,198.807 192.875 C 198.807 192.569,199.987 189.949,201.212 187.537 C 201.639 186.696,201.988 185.781,201.988 185.503 C 201.988 185.225,202.602 183.766,203.352 182.260 C 204.102 180.755,205.100 178.542,205.569 177.343 C 206.039 176.144,206.857 174.215,207.387 173.057 C 207.916 171.898,208.350 170.863,208.350 170.755 C 208.350 170.648,209.045 169.088,209.894 167.288 C 210.743 165.488,211.739 163.121,212.106 162.028 C 212.474 160.934,213.387 158.942,214.135 157.600 C 214.883 156.258,216.012 153.753,216.644 152.033 C 218.185 147.837,220.440 142.612,221.445 140.910 C 227.621 130.442,228.332 121.369,223.174 118.829 L 221.272 117.893 200.000 117.893 C 188.300 117.893,178.239 118.029,177.641 118.197 C 175.011 118.933,172.731 122.022,170.978 127.225 C 170.514 128.601,167.481 136.369,164.236 144.486 C 160.992 152.603,158.161 159.871,157.945 160.636 C 157.406 162.544,154.463 169.832,153.315 172.100 C 152.799 173.121,152.154 174.761,151.883 175.746 C 151.612 176.730,151.055 178.293,150.645 179.220 C 150.236 180.147,149.901 181.089,149.901 181.313 C 149.901 181.537,149.718 182.031,149.495 182.411 C 149.272 182.791,148.751 184.085,148.338 185.288 C 147.549 187.586,145.441 192.857,143.567 197.217 C 142.956 198.638,142.328 200.505,142.171 201.365 C 142.013 202.225,141.293 204.104,140.570 205.540 C 139.847 206.976,139.028 208.912,138.750 209.841 C 138.003 212.336,137.431 211.966,136.756 208.549 C 136.437 206.936,136.324 206.509,134.808 201.193 C 134.340 199.553,133.622 196.958,133.212 195.427 C 131.551 189.214,131.191 187.978,130.860 187.343 C 130.669 186.978,130.025 184.712,129.428 182.306 C 128.830 179.901,128.118 177.485,127.845 176.938 C 127.572 176.392,127.240 175.318,127.108 174.553 C 126.976 173.787,126.438 171.640,125.912 169.781 C 125.387 167.922,124.570 164.970,124.096 163.221 C 123.623 161.471,122.801 158.608,122.270 156.859 C 121.739 155.109,120.929 152.336,120.470 150.696 C 118.484 143.596,115.920 136.051,115.567 136.269 C 115.355 136.400,115.314 136.296,115.475 136.036 C 115.896 135.354,115.331 133.140,114.817 133.458 C 114.557 133.618,114.506 133.533,114.687 133.240 C 114.851 132.976,114.266 130.041,113.387 126.718 C 112.509 123.395,111.590 119.692,111.346 118.489 C 111.101 117.286,110.730 115.631,110.520 114.811 C 109.595 111.192,109.233 109.889,108.946 109.145 C 108.596 108.238,108.190 106.804,106.412 100.199 C 106.089 98.996,105.436 96.759,104.961 95.229 C 104.487 93.698,104.011 91.998,103.903 91.451 C 103.795 90.905,103.344 89.205,102.902 87.674 C 101.290 82.101,99.067 74.207,98.535 72.167 C 98.307 71.292,97.975 70.219,97.798 69.781 C 97.620 69.344,97.364 68.449,97.229 67.793 C 96.843 65.929,96.380 64.119,95.242 60.040 C 94.662 57.962,93.817 54.920,93.363 53.280 C 88.466 35.576,87.000 33.805,79.015 35.952 M112.050 125.540 C 111.739 125.916,111.819 126.044,112.366 126.044 C 113.003 126.044,112.979 126.128,112.182 126.686 C 111.447 127.201,111.173 127.229,110.801 126.827 C 110.439 126.434,110.468 126.398,110.934 126.658 C 111.438 126.940,111.450 126.892,111.013 126.352 C 110.571 125.807,110.623 125.672,111.364 125.437 C 112.029 125.226,112.106 125.083,111.693 124.828 C 111.375 124.632,111.043 124.675,110.884 124.933 C 110.735 125.174,110.641 124.920,110.674 124.370 L 110.736 123.369 111.602 124.202 C 112.235 124.811,112.356 125.172,112.050 125.540 M112.879 128.283 C 112.525 128.709,112.584 128.827,113.149 128.827 C 113.822 128.827,113.819 128.866,113.098 129.411 C 111.723 130.450,111.067 129.547,112.300 128.313 C 112.744 127.869,112.766 127.624,112.400 127.210 C 112.006 126.766,112.044 126.766,112.629 127.209 C 113.167 127.616,113.225 127.866,112.879 128.283 M113.748 130.943 C 113.479 131.213,113.559 131.498,113.991 131.814 C 114.502 132.188,114.527 132.350,114.114 132.605 C 113.771 132.817,113.691 132.770,113.879 132.467 C 114.035 132.215,113.973 132.008,113.741 132.008 C 113.510 132.008,113.317 132.321,113.314 132.704 C 113.309 133.298,113.252 133.313,112.922 132.803 C 112.397 131.990,112.426 131.766,113.150 131.042 C 113.493 130.699,113.583 130.417,113.348 130.417 C 113.114 130.417,112.922 130.217,112.922 129.971 C 112.922 129.668,113.120 129.688,113.536 130.034 C 113.948 130.376,114.017 130.674,113.748 130.943 M113.769 134.099 C 113.850 133.887,114.242 134.027,114.639 134.411 C 115.178 134.931,115.239 135.185,114.876 135.409 C 114.565 135.601,114.492 135.544,114.674 135.250 C 114.830 134.998,114.768 134.791,114.536 134.791 C 114.305 134.791,114.109 135.104,114.101 135.487 C 114.090 136.018,113.953 135.948,113.519 135.189 C 112.913 134.128,112.701 133.030,113.278 133.942 C 113.467 134.240,113.688 134.310,113.769 134.099 M115.461 137.229 C 115.655 137.372,115.447 137.685,115.000 137.924 C 114.317 138.290,114.208 138.249,114.320 137.669 C 114.392 137.289,114.466 136.814,114.483 136.614 C 114.501 136.397,114.634 136.395,114.811 136.609 C 114.975 136.807,115.268 137.086,115.461 137.229 M116.549 140.469 C 116.338 140.680,116.253 141.081,116.360 141.360 C 116.676 142.183,115.843 142.398,115.254 141.646 C 114.770 141.029,114.783 141.010,115.370 141.468 C 115.959 141.929,116.014 141.833,115.894 140.548 C 115.780 139.322,115.846 139.184,116.347 139.599 C 116.723 139.912,116.795 140.223,116.549 140.469 " stroke="none" fill="#fcfcfc" fill-rule="evenodd"></path><path id="path1" d="M110.884 123.956 C 111.146 124.448,111.577 124.854,111.843 124.857 C 112.176 124.861,112.192 124.954,111.894 125.155 C 111.249 125.590,110.910 127.221,111.512 126.990 C 111.780 126.887,112.229 127.079,112.510 127.417 C 112.791 127.756,112.841 128.032,112.620 128.032 C 112.400 128.032,112.136 128.470,112.034 129.006 C 111.852 129.957,111.873 129.966,112.981 129.393 C 114.344 128.688,114.440 128.423,113.221 128.728 L 112.326 128.952 113.117 127.995 C 113.552 127.468,113.747 127.170,113.551 127.333 C 113.355 127.495,112.952 127.426,112.656 127.181 C 112.211 126.811,112.239 126.644,112.819 126.210 C 113.448 125.739,113.418 125.711,112.525 125.934 C 111.694 126.141,111.608 126.088,112.000 125.609 C 112.374 125.151,112.262 124.838,111.438 124.049 C 110.456 123.107,110.430 123.103,110.884 123.956 M112.922 129.938 C 112.922 130.165,113.146 130.441,113.419 130.552 C 113.817 130.712,113.817 130.759,113.419 130.784 C 113.146 130.801,112.922 131.167,112.922 131.598 C 112.922 132.165,113.105 132.311,113.584 132.127 C 114.065 131.942,114.157 132.017,113.920 132.399 C 113.690 132.772,113.747 132.832,114.114 132.605 C 114.527 132.350,114.503 132.189,113.994 131.817 C 113.481 131.441,113.451 131.237,113.844 130.784 C 114.113 130.473,114.256 130.262,114.161 130.315 C 114.067 130.367,113.750 130.211,113.456 129.968 C 113.106 129.677,112.922 129.667,112.922 129.938 M113.718 134.385 C 113.718 134.948,113.901 135.094,114.379 134.910 C 114.860 134.726,114.952 134.800,114.716 135.183 C 114.499 135.533,114.544 135.614,114.849 135.426 C 115.439 135.061,115.446 135.086,114.513 134.287 C 113.757 133.640,113.718 133.644,113.718 134.385 M114.422 137.342 C 114.253 138.229,114.317 138.290,115.023 137.912 C 115.457 137.679,115.655 137.372,115.461 137.229 C 115.268 137.086,114.997 136.829,114.861 136.659 C 114.724 136.488,114.527 136.795,114.422 137.342 M115.866 140.330 C 115.911 140.989,116.101 141.668,116.288 141.838 C 116.475 142.008,116.524 141.856,116.397 141.500 C 116.270 141.144,116.338 140.680,116.549 140.469 C 116.795 140.223,116.726 139.915,116.357 139.609 C 115.876 139.209,115.796 139.326,115.866 140.330 M0.153 156.040 C -0.148 156.825,0.112 157.899,0.596 157.874 C 1.086 157.848,1.211 155.467,0.723 155.467 C 0.530 155.467,0.274 155.725,0.153 156.040 " stroke="none" fill="#c8e0f8" fill-rule="evenodd"></path><path id="path2" d="" stroke="none" fill="#100ecf8" fill-rule="evenodd"></path><path id="path3" d="" stroke="none" fill="#100ecf8" fill-rule="evenodd"></path></g></svg>